<?xml version="1.0" encoding="UTF-8"?><svg xmlns="http://www.w3.org/2000/svg" viewBox="0 0 289.27 195.15">
  <defs>
    <style>
      .d {
        fill: #fff;
      }

      .e {
        fill: #00a7e0;
      }
    </style>
  </defs>
  <g id="a" />
  <g id="b">
    <g id="c">
      <g>
        <path class="e"
          d="M44.93,185.45c29.95-1.38,154.49,.39,194.68-.37,38.61-.73,48.85-29.01,49.6-45.18,.04-.23,.05-.36,.05-.36V0s-14.98,8.32-44.93,9.7c-29.95,1.38-154.49-.39-194.68,.37C11.05,10.81,.8,39.09,.05,55.25c-.04,.23-.05,.36-.05,.36V195.15s14.98-8.32,44.93-9.7Z" />
        <g>
          <path class="d"
            d="M91.53,48.25c.38,.36,.82,.65,1.32,.86,.49,.21,1.01,.32,1.56,.32s1.07-.11,1.57-.32c.5-.21,.95-.5,1.33-.86,.38-.36,.68-.79,.89-1.29,.21-.49,.32-1.03,.32-1.62s-.11-1.1-.32-1.6c-.21-.5-.51-.95-.89-1.33-.38-.38-.83-.68-1.33-.89-.51-.21-1.03-.32-1.57-.32s-1.07,.11-1.56,.32c-.49,.21-.93,.51-1.32,.89-.38,.38-.69,.83-.91,1.33-.22,.5-.33,1.04-.33,1.6s.11,1.12,.33,1.62c.22,.5,.52,.92,.91,1.29Z" />
          <path class="d"
            d="M81.85,48.25c.38,.36,.82,.65,1.32,.86,.49,.21,1.01,.32,1.56,.32s1.07-.11,1.57-.32c.5-.21,.95-.5,1.33-.86,.38-.36,.68-.79,.89-1.29,.21-.49,.32-1.03,.32-1.62s-.11-1.1-.32-1.6c-.21-.5-.51-.95-.89-1.33-.38-.38-.83-.68-1.33-.89-.5-.21-1.03-.32-1.57-.32s-1.06,.11-1.56,.32c-.49,.21-.93,.51-1.32,.89-.38,.38-.69,.83-.91,1.33-.22,.5-.33,1.04-.33,1.6s.11,1.12,.33,1.62c.22,.5,.52,.92,.91,1.29Z" />
          <path class="d"
            d="M118.54,52.83c.38,.36,.82,.65,1.32,.86,.49,.21,1.01,.32,1.56,.32s1.07-.11,1.57-.32c.5-.21,.95-.5,1.33-.86,.38-.36,.68-.79,.89-1.29,.21-.5,.32-1.03,.32-1.62s-.11-1.1-.32-1.6c-.21-.5-.51-.95-.89-1.33-.38-.38-.83-.68-1.33-.89-.5-.21-1.03-.32-1.57-.32s-1.06,.11-1.56,.32c-.5,.21-.93,.51-1.32,.89s-.69,.83-.91,1.33c-.22,.5-.33,1.04-.33,1.6s.11,1.12,.33,1.62c.22,.49,.52,.92,.91,1.29Z" />
          <path class="d"
            d="M150.27,91.97c0-.57-.11-1.1-.32-1.6-.21-.5-.51-.95-.89-1.33s-.83-.68-1.33-.89c-.5-.21-1.03-.32-1.57-.32s-1.06,.11-1.56,.32c-.49,.21-.93,.51-1.32,.89-.38,.38-.69,.83-.91,1.33-.22,.5-.33,1.04-.33,1.6s.11,1.12,.33,1.62c.22,.5,.52,.92,.91,1.29,.38,.36,.82,.65,1.32,.86,.5,.21,1.01,.32,1.56,.32s1.07-.11,1.57-.32c.5-.21,.95-.5,1.33-.86,.38-.36,.68-.79,.89-1.29,.21-.49,.32-1.03,.32-1.62Z" />
          <path class="d"
            d="M198.79,51.52c-5.25,0-9.42,1.63-12.5,4.9-2.79,2.95-4.18,6.9-4.18,11.87v3.15c0,1.78-.42,3.1-1.27,3.97-.69,.71-2.34,1.06-4.96,1.06h-.82c-.59,0-1.14-.26-1.67-.79-.69-.67-1.03-1.52-1.03-2.57v-27.64h-9.54v27.64c0,1.05-.34,1.91-1.03,2.57-.53,.53-1.08,.79-1.67,.79h-5.24c-1.13,0-2.05-.36-2.75-1.09-.75-.79-1.16-1.91-1.24-3.36v-15.05h-9.57v14.47c0,1.78-.42,3.1-1.27,3.97-.69,.71-1.63,1.06-2.85,1.06h-6.66c-1.13,0-2.05-.36-2.75-1.09-.75-.79-1.16-1.91-1.24-3.36v-15.05h-9.57v14.47c0,1.78-.42,3.1-1.27,3.97-.69,.71-1.63,1.06-2.85,1.06h-2.51c-2.56,0-4.2-.36-4.9-1.09-.85-.87-1.27-2.18-1.27-3.94v-10.96c0-3.27-1.89-5.72-5.66-7.36-2.36-1.05-5.03-1.57-7.99-1.57h-.09c-5.27,.02-9.44,1.65-12.5,4.87-2.79,2.97-4.18,6.92-4.18,11.87,0,6.6,2.52,11.36,7.57,14.29,2.08,1.21,4.36,1.9,6.84,2.06,.36,.02,.73,.03,1.09,.03,2.04,0,4-.37,5.87-1.12,1.51-.93,2.52-1.89,3.03-2.88,2.34,2.43,5.91,3.75,10.69,3.98v.05h4.03c4.2,0,7.16-.91,8.9-2.72,1.71,1.82,4.64,2.72,8.78,2.72h6.66c4.2,0,7.16-.91,8.9-2.72,1.71,1.82,4.64,2.72,8.78,2.72h5.24c3.51,0,5.89-.62,7.14-1.88,1.67,1.25,4.27,1.88,7.78,1.88h2.33v-.04c4.8-.2,8.32-1.33,10.54-3.41,2.16,2.3,5.77,3.45,10.84,3.45s9.23-1.62,12.38-4.87c2.91-2.97,4.36-6.81,4.36-11.53,0-4.98-1.39-8.95-4.18-11.9-3.07-3.25-7.25-4.87-12.53-4.87Zm-104.14,19.77c-.34,2.42-1.51,4.03-3.51,4.81-.61,.24-1.22,.36-1.85,.36-.1,0-.22,0-.36-.03-.81-.04-1.55-.26-2.24-.67-2.26-1.29-3.39-3.78-3.39-7.48,0-2.99,.69-5.21,2.06-6.66,1.17-1.25,2.87-1.88,5.09-1.88h.09c1.39,0,2.6,.22,3.63,.67,.18,.08,.34,.4,.48,.97v9.9Zm109.2,3.24c-1.25,1.29-2.95,1.94-5.09,1.94s-3.7-.67-5-2c-1.41-1.45-2.12-3.51-2.12-6.18,0-2.99,.7-5.22,2.09-6.69,1.15-1.23,2.83-1.85,5.06-1.85s3.97,.62,5.12,1.85c1.37,1.43,2.06,3.66,2.06,6.69,0,2.71-.71,4.78-2.12,6.24Z" />
          <path class="d"
            d="M70.89,109.25c.38,.36,.82,.65,1.32,.86,.49,.21,1.01,.32,1.56,.32s1.07-.11,1.57-.32c.5-.21,.95-.5,1.33-.86,.38-.36,.68-.79,.89-1.29,.21-.49,.32-1.03,.32-1.62s-.11-1.1-.32-1.6c-.21-.5-.51-.95-.89-1.33-.38-.38-.83-.68-1.33-.89-.5-.21-1.03-.32-1.57-.32s-1.06,.11-1.56,.32c-.49,.21-.93,.51-1.32,.89-.38,.38-.69,.83-.91,1.33-.22,.5-.33,1.04-.33,1.6s.11,1.12,.33,1.62c.22,.5,.52,.92,.91,1.29Z" />
          <path class="d"
            d="M80.58,109.25c.38,.36,.82,.65,1.32,.86,.49,.21,1.01,.32,1.56,.32s1.07-.11,1.57-.32c.5-.21,.95-.5,1.33-.86,.38-.36,.68-.79,.89-1.29,.21-.49,.32-1.03,.32-1.62s-.11-1.1-.32-1.6c-.21-.5-.51-.95-.89-1.33-.38-.38-.83-.68-1.33-.89-.5-.21-1.03-.32-1.57-.32s-1.06,.11-1.56,.32c-.49,.21-.93,.51-1.32,.89-.38,.38-.69,.83-.91,1.33-.22,.5-.33,1.04-.33,1.6s.11,1.12,.33,1.62c.22,.5,.52,.92,.91,1.29Z" />
          <path class="d"
            d="M141.12,124.3c-3.01-2.1-6.94-3.15-11.81-3.15h-18.74l-.91,1.3c.08-2.54,1.92-4.44,5.51-5.69,2.44-.83,6.57-1.5,12.38-2.03,2.83-.26,5.59-.62,8.29-1.06l-2.3-7.96c-2.14,.36-4.46,.65-6.96,.85-7.61,.67-13.11,1.67-16.5,3-6.44,2.48-9.76,6.74-9.96,12.78v3l.06,4.06h29.12c2.62,0,4.55,.42,5.78,1.27,.91,.65,1.36,1.6,1.36,2.88,0,1.09-.46,1.95-1.39,2.57-1.35,.91-3.25,1.36-5.69,1.36h-29.97c-2.56,0-4.2-.36-4.9-1.09-.85-.87-1.27-2.18-1.27-3.94v-10.96c0-3.27-1.89-5.72-5.66-7.36-2.36-1.05-5.03-1.57-7.99-1.57h-.09c-5.27,.02-9.44,1.65-12.5,4.87-2.79,2.97-4.18,6.92-4.18,11.87,0,6.6,2.52,11.36,7.57,14.29,2.08,1.21,4.36,1.9,6.84,2.06,.36,.02,.73,.03,1.09,.03,2.04,0,4-.37,5.87-1.12,1.51-.93,2.52-1.89,3.03-2.88,2.34,2.43,5.91,3.75,10.69,3.98v.05h31.48c4.66,0,8.53-1.05,11.59-3.15,3.35-2.28,5.03-5.29,5.03-9.02s-1.62-6.99-4.87-9.23Zm-57.43,7.99c-.34,2.42-1.51,4.03-3.51,4.81-.61,.24-1.22,.36-1.85,.36-.1,0-.22,0-.36-.03-.81-.04-1.55-.26-2.24-.67-2.26-1.29-3.39-3.78-3.39-7.48,0-2.99,.69-5.21,2.06-6.66,1.17-1.25,2.87-1.88,5.09-1.88h.09c1.39,0,2.6,.22,3.63,.67,.18,.08,.34,.4,.48,.97v9.9Z" />
          <path class="d"
            d="M186.96,150.03c-.38-.38-.83-.68-1.33-.89-.5-.21-1.03-.32-1.57-.32s-1.06,.11-1.56,.32c-.49,.21-.93,.51-1.32,.89-.38,.38-.69,.83-.91,1.33-.22,.5-.33,1.04-.33,1.6s.11,1.12,.33,1.62c.22,.5,.52,.92,.91,1.29,.38,.36,.82,.65,1.32,.86,.5,.21,1.01,.32,1.56,.32s1.07-.11,1.57-.32c.5-.21,.95-.5,1.33-.86,.38-.36,.68-.79,.89-1.29,.21-.49,.32-1.03,.32-1.62s-.11-1.1-.32-1.6c-.21-.5-.51-.95-.89-1.33Z" />
          <path class="d"
            d="M200.73,134.11c0,1.05-.34,1.91-1.03,2.57-.53,.53-1.08,.79-1.67,.79h-5.24c-1.13,0-2.05-.36-2.75-1.09-.75-.79-1.16-1.91-1.24-3.36v-15.05h-9.57v14.47c0,1.78-.42,3.1-1.27,3.97-.69,.71-1.63,1.06-2.85,1.06h-4.21c-1.13,0-2.05-.36-2.75-1.09-.73-.75-1.14-1.81-1.24-3.18v-15.23h-9.54v21.34c.04,.46,.06,.89,.06,1.27,0,2.32-.5,4.4-1.48,6.24-.42,.79-1.05,1.68-1.88,2.66-.81,.99-2.44,2.61-4.9,4.87l7.05,5c2.28-2.1,3.95-3.77,5-5.03,1.15-1.39,2.08-2.75,2.79-4.06,1.27-2.38,1.99-4.03,2.15-4.93,.24,.14,1.65,.26,4.24,.36h4.72c4.2,0,7.16-.91,8.9-2.72,1.71,1.82,4.64,2.72,8.78,2.72h5.24c3.51,0,6.47-1.21,8.87-3.63,2.24-2.22,3.36-4.87,3.36-7.96v-27.64h-9.54v27.64Z" />
          <rect class="d" x="216.93" y="106.47" width="9.54" height="37.24" />
        </g>
      </g>
    </g>
  </g>
</svg>